<?xml version="1.0" encoding="UTF-8" standalone="no"?>
<svg
   width="2650"
   height="867"
   xml:space="preserve"
   overflow="hidden"
   version="1.1"
   id="svg1"
   sodipodi:docname="indigenize_LogoV1.svg"
   inkscape:version="1.4.2 (f4327f4, 2025-05-13)"
   inkscape:export-filename="indigenize_LogoV1.png"
   inkscape:export-xdpi="96"
   inkscape:export-ydpi="96"
   xmlns:inkscape="http://www.inkscape.org/namespaces/inkscape"
   xmlns:sodipodi="http://sodipodi.sourceforge.net/DTD/sodipodi-0.dtd"
   xmlns="http://www.w3.org/2000/svg"
   xmlns:svg="http://www.w3.org/2000/svg"><defs
     id="defs1" /><sodipodi:namedview
     id="namedview1"
     pagecolor="#ffffff"
     bordercolor="#000000"
     borderopacity="0.25"
     inkscape:showpageshadow="2"
     inkscape:pageopacity="0.0"
     inkscape:pagecheckerboard="0"
     inkscape:deskcolor="#d1d1d1"
     inkscape:zoom="0.47389496"
     inkscape:cx="1241.8364"
     inkscape:cy="501.16591"
     inkscape:window-width="1920"
     inkscape:window-height="1009"
     inkscape:window-x="2992"
     inkscape:window-y="235"
     inkscape:window-maximized="1"
     inkscape:current-layer="g1" /><g
     transform="translate(-762 -616)"
     id="g1"><path
       d="M963.5 983.001C963.5 842.996 1077 729.5 1217 729.5L2938 729.5C3078.01 729.5 3191.5 842.996 3191.5 983.001L3191.5 983.001C3191.5 1123.01 3078 1236.5 2938 1236.5L1217 1236.5C1077 1236.5 963.5 1123 963.5 982.999Z"
       stroke="#000000"
       stroke-width="4.58333"
       stroke-miterlimit="8"
       fill="#FFFFFF"
       fill-rule="evenodd"
       id="path1" /><path
       id="path16"
       style="font-weight:700;font-size:413px;font-family:Rubik, Rubik_MSFontService, sans-serif"
       transform="translate(1010.15,1131)"
       d="m 1992.3114,-83.839 q 0,17.346 11.151,24.78 11.151,7.434 26.019,7.434 11.564,0 18.998,-2.478 7.434,-2.478 12.803,-7.021 4.543,-3.717 6.608,-4.543 2.065,-1.239 7.021,-1.239 h 53.69 q 4.13,0 6.608,2.478 2.478,2.478 2.478,6.608 0,8.26 -12.39,23.541 -12.39,14.868 -36.757,26.845 -24.367,11.564 -59.059,11.564 -53.277,0 -82.6,-29.323 -28.91,-29.736 -28.91,-82.187 0,-32.627 12.803,-57.82 13.216,-25.193 38.409,-39.235 25.193,-14.455 60.298,-14.455 38.409,0 63.189,16.52 25.193,16.107 36.757,42.126 11.564,25.606 11.564,53.69 v 11.564 q 0,4.543 -3.304,7.847 -3.304,3.304 -7.847,3.304 z m 74.34,-45.843 q -1.652,-14.042 -11.564,-23.541 -9.499,-9.912 -25.606,-9.912 -16.107,0 -26.019,9.912 -9.499,9.499 -11.151,23.541 z" /><path
       style="font-weight:700;font-size:413px;font-family:Rubik, Rubik_MSFontService, sans-serif"
       d="m 1878.7367,-64.015 q 4.543,0 7.847,3.304 3.304,3.304 3.304,7.847 v 41.713 q 0,4.543 -3.304,7.847 -3.304,3.304 -7.847,3.304 h -180.068 q -4.543,0 -7.847,-3.304 -3.304,-3.304 -3.304,-7.847 v -40.061 q 0,-4.543 1.652,-7.434 1.652,-3.304 4.956,-7.021 l 81.774,-85.078 h -73.101 q -4.543,0 -7.847,-3.304 -3.304,-3.304 -3.304,-7.847 v -41.713 q 0,-4.543 3.304,-7.847 3.304,-3.304 7.847,-3.304 h 167.678 q 4.543,0 7.847,3.304 3.304,3.304 3.304,7.847 v 40.061 q 0,5.369 -5.782,11.977 l -83.839,87.556 z"
       transform="translate(1010.15,1131)"
       id="path15" /><path
       style="font-weight:700;font-size:413px;font-family:Rubik, Rubik_MSFontService, sans-serif"
       d="m 1649.1086,-11.151 q 0,4.543 -3.304,7.847 -3.304,3.304 -7.847,3.304 h -52.038 q -4.543,0 -7.847,-3.304 -3.304,-3.304 -3.304,-7.847 v -192.458 q 0,-4.543 3.304,-7.847 3.304,-3.304 7.847,-3.304 h 52.038 q 4.543,0 7.847,3.304 3.304,3.304 3.304,7.847 z"
       transform="translate(1010.15,1131)"
       id="path14" /><path
       style="font-weight:700;font-size:413px;font-family:Rubik, Rubik_MSFontService, sans-serif;fill:#ff0000"
       d="m 1649.1086,-248.626 q 0,4.543 -3.304,7.847 -3.304,3.304 -7.847,3.304 h -52.038 q -4.543,0 -7.847,-3.304 -3.304,-3.304 -3.304,-7.847 v -41.713 q 0,-4.543 3.304,-7.847 3.304,-3.304 7.847,-3.304 h 52.038 q 4.543,0 7.847,3.304 3.304,3.304 3.304,7.847 z"
       transform="translate(1010.15,1131)"
       id="path13" /><path
       style="font-weight:700;font-size:413px;font-family:Rubik, Rubik_MSFontService, sans-serif"
       d="m 1528.926,-11.151 q 0,4.543 -3.304,7.847 Q 1522.318,0 1517.775,0 h -52.038 q -4.543,0 -7.847,-3.304 -3.304,-3.304 -3.304,-7.847 V -115.64 q 0,-18.172 -9.086,-28.497 -8.673,-10.738 -26.845,-10.738 -17.759,0 -26.845,10.325 -8.673,10.325 -8.673,28.91 v 104.489 q 0,4.543 -3.304,7.847 Q 1376.529,0 1371.986,0 h -52.038 q -4.543,0 -7.847,-3.304 -3.304,-3.304 -3.304,-7.847 v -192.458 q 0,-4.543 3.304,-7.847 3.304,-3.304 7.847,-3.304 h 49.973 q 4.543,0 7.847,3.304 3.304,3.304 3.304,7.847 v 9.499 q 19.411,-24.78 58.233,-24.78 41.713,0 65.667,23.541 23.954,23.541 23.954,70.623 z"
       transform="translate(1010.15,1131)"
       id="path12" /><path
       id="path10"
       style="font-weight:700;font-size:413px;font-family:Rubik, Rubik_MSFontService, sans-serif"
       transform="translate(1010.15,1131)"
       d="m 1122.5339,-83.839 q 0,17.346 11.151,24.78 11.151,7.434 26.019,7.434 11.564,0 18.998,-2.478 7.434,-2.478 12.803,-7.021 4.543,-3.717 6.608,-4.543 2.065,-1.239 7.021,-1.239 h 53.69 q 4.13,0 6.608,2.478 2.478,2.478 2.478,6.608 0,8.26 -12.39,23.541 -12.39,14.868 -36.757,26.845 -24.367,11.564 -59.059,11.564 -53.277,0 -82.6,-29.323 -28.91,-29.736 -28.91,-82.187 0,-32.627 12.803,-57.82 13.216,-25.193 38.409,-39.235 25.193,-14.455 60.298,-14.455 38.409,0 63.189,16.52 25.193,16.107 36.757,42.126 11.564,25.606 11.564,53.69 v 11.564 q 0,4.543 -3.304,7.847 -3.304,3.304 -7.847,3.304 z m 74.34,-45.843 q -1.652,-14.042 -11.564,-23.541 -9.499,-9.912 -25.606,-9.912 -16.107,0 -26.019,9.912 -9.499,9.499 -11.151,23.541 z" /><path
       id="path8"
       style="font-weight:700;font-size:413px;font-family:Rubik, Rubik_MSFontService, sans-serif"
       transform="translate(1010.15,1131)"
       d="m 937.92257,-28.91 q -6.608,7.847 -12.803,12.803 -5.782,4.956 -16.933,8.673 -10.738,3.304 -27.671,3.304 -39.235,0 -65.254,-23.541 -25.606,-23.954 -27.258,-68.971 l -0.413,-14.868 0.413,-14.455 q 1.652,-45.43 27.258,-68.971 26.019,-23.954 65.254,-23.954 41.713,0 59.472,24.78 v -9.499 q 0,-4.543 3.304,-7.847 3.304,-3.304 7.847,-3.304 h 47.908 q 4.54303,0 7.84703,3.304 3.304,3.304 3.304,7.847 V -2.478 q 0,45.017 -30.97503,68.971 -30.975,24.367 -81.774,24.367 -39.235,0 -62.776,-12.39 -23.541,-11.977 -33.04,-28.497 -9.086,-16.52 -9.912,-31.801 -0.413,-4.543 2.891,-7.847 3.717,-3.304 8.26,-3.304 h 53.69 q 8.673,0 12.803,8.26 3.304,6.195 9.499,9.912 6.608,3.717 19.411,3.717 16.933,0 28.084,-7.434 11.564,-7.434 11.564,-21.476 z m -75.992,-72.688 q 1.239,15.281 10.325,24.367 9.499,9.086 26.845,9.086 15.694,0 25.193,-8.673 9.499,-8.673 11.564,-21.889 0.826,-4.13 0.826,-13.216 0,-8.673 -0.826,-12.803 -1.652,-12.803 -11.151,-21.476 -9.499,-8.673 -25.606,-8.673 -16.933,0 -26.432,9.086 -9.499,8.673 -10.738,23.954 -0.413,4.13 -0.413,9.912 0,6.195 0.413,10.325 z" /><path
       style="font-weight:700;font-size:413px;font-family:Rubik, Rubik_MSFontService, sans-serif"
       d="m 748.35577,-11.151 q 0,4.543 -3.304,7.847 -3.304,3.304 -7.847,3.304 h -52.038 q -4.543,0 -7.847,-3.304 -3.304,-3.304 -3.304,-7.847 v -192.458 q 0,-4.543 3.304,-7.847 3.304,-3.304 7.847,-3.304 h 52.038 q 4.543,0 7.847,3.304 3.304,3.304 3.304,7.847 z"
       transform="translate(1010.15,1131)"
       id="path7" /><path
       style="font-weight:700;font-size:413px;font-family:Rubik, Rubik_MSFontService, sans-serif;fill:#ff0000"
       d="m 748.35577,-248.626 c 0,3.02867 -1.10133,5.64433 -3.304,7.847 -2.20267,2.20267 -4.81833,3.304 -7.847,3.304 h -52.038 c -3.02867,0 -5.64433,-1.10133 -7.847,-3.304 -2.20267,-2.20267 -3.304,-4.81833 -3.304,-7.847 v -41.713 c 0,-3.02867 1.10133,-5.64433 3.304,-7.847 2.20267,-2.20267 4.81833,-3.304 7.847,-3.304 h 52.038 c 3.02867,0 5.64433,1.10133 7.847,3.304 2.20267,2.20267 3.304,4.81833 3.304,7.847 z"
       transform="translate(1010.15,1131)"
       id="path6"
       sodipodi:nodetypes="sssssssssssss" /><path
       id="path4"
       style="font-weight:700;font-size:413px;font-family:Rubik, Rubik_MSFontService, sans-serif"
       transform="translate(1010.15,1131)"
       d="m 551.76742,-282.079 q 0,-4.543 3.304,-7.847 3.304,-3.304 7.847,-3.304 h 52.038 q 4.543,0 7.847,3.304 3.304,3.304 3.304,7.847 v 270.928 q 0,4.543 -3.304,7.847 -3.304,3.304 -7.847,3.304 h -49.973 q -4.543,0 -7.847,-3.304 -3.304,-3.304 -3.304,-7.847 v -9.499 q -6.608,7.847 -12.803,12.803 -5.782,4.956 -16.933,8.26 -10.738,3.717 -27.671,3.717 -39.235,0 -65.254,-23.954 -25.606,-23.954 -27.258,-70.623 l -0.413,-16.933 0.413,-16.52 q 1.652,-46.669 27.258,-70.623 25.606,-24.367 65.254,-24.367 21.476,0 34.692,7.434 13.216,7.434 20.65,17.346 z m -73.927,186.263 q 1.239,16.107 9.912,26.019 9.086,9.912 27.258,9.912 16.933,0 25.606,-9.499 9.086,-9.499 11.151,-23.541 0.826,-4.13 0.826,-14.455 0,-10.325 -0.826,-14.455 -1.652,-13.629 -10.738,-23.128 -9.086,-9.912 -26.019,-9.912 -18.172,0 -27.258,9.912 -8.673,9.912 -9.912,26.019 -0.413,4.13 -0.413,11.564 0,7.434 0.413,11.564 z" /><path
       style="font-weight:700;font-size:413px;font-family:Rubik, Rubik_MSFontService, sans-serif"
       d="m 366.3308,-11.151 q 0,4.543 -3.304,7.847 Q 359.7228,0 355.1798,0 h -52.038 q -4.543,0 -7.847,-3.304 -3.304,-3.304 -3.304,-7.847 V -115.64 q 0,-18.172 -9.086,-28.497 -8.673,-10.738 -26.845,-10.738 -17.759,0 -26.845,10.325 -8.673,10.325 -8.673,28.91 v 104.489 q 0,4.543 -3.304,7.847 Q 213.9338,0 209.3908,0 h -52.038 q -4.543,0 -7.847,-3.304 -3.304,-3.304 -3.304,-7.847 v -192.458 q 0,-4.543 3.304,-7.847 3.304,-3.304 7.847,-3.304 h 49.973 q 4.543,0 7.847,3.304 3.304,3.304 3.304,7.847 v 9.499 q 19.411,-24.78 58.233,-24.78 41.713,0 65.667,23.541 23.954,23.541 23.954,70.623 z"
       transform="translate(1010.15,1131)"
       id="path3" /><path
       style="font-weight:700;font-size:413px;font-family:Rubik, Rubik_MSFontService, sans-serif"
       d="m 98.294,-11.151 q 0,4.543 -3.304,7.847 Q 91.686,0 87.143,0 H 35.105 q -4.543,0 -7.847,-3.304 -3.304,-3.304 -3.304,-7.847 v -192.458 q 0,-4.543 3.304,-7.847 3.304,-3.304 7.847,-3.304 h 52.038 q 4.543,0 7.847,3.304 3.304,3.304 3.304,7.847 z"
       transform="translate(1010.15,1131)"
       id="path2" /><path
       style="font-weight:700;font-size:413px;font-family:Rubik, Rubik_MSFontService, sans-serif;fill:#ff0000"
       d="m 98.294,-248.626 q 0,4.543 -3.304,7.847 -3.304,3.304 -7.847,3.304 H 35.105 q -4.543,0 -7.847,-3.304 -3.304,-3.304 -3.304,-7.847 v -41.713 q 0,-4.543 3.304,-7.847 3.304,-3.304 7.847,-3.304 h 52.038 q 4.543,0 7.847,3.304 3.304,3.304 3.304,7.847 z"
       transform="translate(1010.15,1131)"
       id="text1" /></g></svg>
